<svg width="223" height="204" viewBox="0 0 223 204" fill="none" xmlns="http://www.w3.org/2000/svg">
<g id="plane">
<g id="Group">
<path id="Vector" d="M128.347 115.663C126.54 116.067 124.781 116.816 123.178 117.862C119.001 120.523 116.571 124.322 117.751 126.349C118.932 128.375 123.275 127.859 127.451 125.199C129.076 124.189 130.52 122.899 131.693 121.406C132.237 120.685 132.335 119.787 131.942 119.115L130.408 116.483C130.018 115.808 129.209 115.487 128.347 115.663Z" fill="#D5D6DB"/>
<path id="Vector_2" d="M117.857 79.7602C116.547 80.0532 115.271 80.5963 114.108 81.3554C111.08 83.2839 109.317 86.039 110.172 87.5069C111.028 88.9749 114.178 88.6009 117.206 86.6726C118.384 85.9401 119.43 85.0037 120.281 83.9216C120.675 83.399 120.746 82.7479 120.461 82.2606L119.351 80.3548C119.068 79.866 118.482 79.6327 117.857 79.7602Z" fill="#D5D6DB"/>
<path id="Vector_3" d="M100.812 81.2524C100.521 81.2196 100.21 81.2972 99.9401 81.4693L92.8275 85.9997C92.2325 86.3775 91.9946 87.1056 92.2966 87.6263C92.3656 87.7456 92.4601 87.8475 92.5748 87.9261L110.111 100.026L133.828 84.919L100.812 81.2524Z" fill="#029BC5"/>
<path id="Vector_4" d="M175.802 79.5715L111.252 120.2L73.0596 135.384L53.5811 139.247L51.4371 135.602L159.033 69.1837C162.24 67.1959 165.812 65.9767 169.389 65.6501C170.955 65.5155 172.502 65.5686 173.994 65.8075C175.316 66.009 176.57 66.3968 177.719 66.9594C179.002 67.5968 181.443 67.6718 182.233 68.9406C182.236 68.9386 184.103 74.7628 175.802 79.5715Z" fill="#E1E6E9"/>
<path id="Vector_5" d="M112.101 114.804L84.1842 159.331C83.8355 159.957 84.0428 160.657 84.6466 160.896C85.0172 161.043 85.4707 160.986 85.8516 160.744L92.9592 156.236C94.3262 155.369 95.5366 154.267 96.5155 152.998L150.661 89.3242L112.101 114.804Z" fill="#029BC5"/>
<path id="Vector_6" d="M41.6333 113.32C41.1674 113.161 40.6131 113.243 40.1452 113.541L34.2706 117.28C33.4701 117.789 33.1513 118.769 33.5583 119.468C33.6359 119.601 33.7366 119.719 33.8573 119.815L50.3229 133.013L67.6284 122.21L41.6333 113.32Z" fill="#029BC5"/>
<path id="Vector_7" d="M55.8365 135.384L46.9784 147.795C46.8486 147.973 46.8792 148.197 47.0468 148.295C47.1676 148.366 47.3326 148.353 47.4666 148.263L52.9573 144.785C52.9999 144.758 53.0385 144.724 53.0704 144.685L66.0142 128.942L55.8365 135.384Z" fill="#029BC5"/>
<path id="Vector_8" d="M172.937 66.3351C171.401 66.0874 169.808 66.0336 168.195 66.1745C166.625 68.3706 165.622 70.838 165.285 73.3307C165.261 73.8315 165.664 74.1921 166.187 74.1364C166.349 74.1188 166.511 74.0618 166.656 73.9704L176.774 67.5306C175.591 66.9462 174.299 66.5437 172.937 66.3351Z" fill="#029BC5"/>
<path id="Vector_9" d="M150.885 78.1826L157.49 74.0142L163.646 84.4851L157.041 88.6535L150.885 78.1826Z" fill="#D5D6DB"/>
<g id="Group_2">
<path id="Vector_10" d="M146.727 82.3238C145.931 82.8276 145.613 83.7969 146.018 84.4885L146.673 85.609C147.104 86.283 148.087 86.4021 148.869 85.875C149.614 85.3729 149.913 84.4597 149.554 83.7849L148.899 82.6644C148.495 81.9734 147.523 81.8207 146.727 82.3238Z" fill="#3A556A"/>
<path id="Vector_11" d="M140.789 86.0113C139.993 86.5151 139.675 87.4844 140.08 88.176L140.735 89.2965C141.166 89.9705 142.149 90.0896 142.931 89.5625C143.676 89.0604 143.975 88.1472 143.616 87.4724L142.961 86.3519C142.557 85.6611 141.585 85.5085 140.789 86.0113Z" fill="#3A556A"/>
<path id="Vector_12" d="M134.849 89.7028C134.054 90.2073 133.737 91.1754 134.141 91.8664L134.796 92.9868C135.227 93.6608 136.21 93.78 136.993 93.2528C137.737 92.7508 138.037 91.8376 137.678 91.1629L137.023 90.0424C136.618 89.3508 135.645 89.1988 134.849 89.7028Z" fill="#3A556A"/>
<path id="Vector_13" d="M128.911 93.3883C128.116 93.8928 127.799 94.8609 128.203 95.552L128.858 96.6725C129.289 97.3465 130.272 97.4656 131.055 96.9384C131.799 96.4364 132.099 95.5231 131.739 94.8484L131.084 93.7279C130.68 93.0365 129.707 92.8845 128.911 93.3883Z" fill="#3A556A"/>
<path id="Vector_14" d="M122.973 97.0754C122.178 97.5801 121.861 98.5487 122.265 99.24L122.92 100.361C123.325 101.052 124.297 101.204 125.093 100.7C125.888 100.197 126.206 99.2283 125.802 98.5372L125.146 97.4163C124.743 96.7246 123.771 96.5716 122.975 97.0744C122.974 97.0748 122.974 97.075 122.973 97.0754Z" fill="#3A556A"/>
<path id="Vector_15" d="M117.035 100.764C116.239 101.269 115.922 102.237 116.327 102.928L116.982 104.049C117.386 104.74 118.359 104.892 119.155 104.389C119.95 103.885 120.268 102.917 119.864 102.226L119.208 101.105C118.805 100.413 117.833 100.26 117.037 100.763C117.036 100.763 117.035 100.764 117.035 100.764Z" fill="#3A556A"/>
<path id="Vector_16" d="M111.096 104.453C110.301 104.958 109.984 105.927 110.388 106.618L111.044 107.739C111.449 108.429 112.422 108.58 113.217 108.075C114.01 107.572 114.327 106.606 113.925 105.915L113.269 104.794C112.865 104.103 111.893 103.95 111.096 104.453Z" fill="#3A556A"/>
<path id="Vector_17" d="M105.158 108.139C104.363 108.644 104.046 109.612 104.45 110.303L105.105 111.424C105.51 112.115 106.483 112.265 107.278 111.761C108.072 111.258 108.389 110.291 107.986 109.601L107.331 108.48C106.927 107.788 105.954 107.636 105.158 108.139Z" fill="#3A556A"/>
<path id="Vector_18" d="M99.22 111.827C98.4245 112.332 98.1075 113.301 98.5118 113.992L99.1672 115.113C99.5723 115.803 100.545 115.954 101.34 115.449C102.134 114.946 102.45 113.98 102.048 113.289L101.393 112.168C100.989 111.477 100.016 111.324 99.22 111.827Z" fill="#3A556A"/>
<path id="Vector_19" d="M93.2799 115.515C92.4842 116.019 92.1668 116.987 92.5709 117.678L92.5717 117.679L93.2272 118.8C93.6322 119.491 94.6053 119.641 95.4001 119.137C96.1936 118.634 96.5104 117.667 96.1082 116.977L95.4527 115.856C95.0488 115.164 94.0763 115.012 93.2799 115.515Z" fill="#3A556A"/>
<path id="Vector_20" d="M87.3434 119.202C86.5477 119.706 86.2303 120.674 86.6343 121.365L86.6352 121.367L87.2907 122.488C87.6957 123.178 88.6688 123.329 89.4637 122.824C90.2572 122.321 90.574 121.355 90.1717 120.664L89.5163 119.543C89.112 118.852 88.1394 118.699 87.3434 119.202Z" fill="#3A556A"/>
</g>
</g>
</g>
</svg>
